<svg xmlns="http://www.w3.org/2000/svg" viewBox="0 0 110.9 128"><defs><style>.cls-1{fill:#b0e9fc;}.cls-2{fill:#bfedfc;}.cls-3{fill:#b8ebfc;}.cls-4{fill:#c6effc;}.cls-5{fill:#a6e6fc;}.cls-6,.cls-7{fill-opacity:0.1;}.cls-7,.cls-8{fill:#fff;}.cls-8{fill-opacity:0.2;}</style></defs><title>Asset 3</title><g id="Layer_2" data-name="Layer 2"><g id="Layer_1-2" data-name="Layer 1"><g id="Layer0_2_MEMBER_0_MEMBER_0_FILL" data-name="Layer0 2 MEMBER 0 MEMBER 0 FILL"><path class="cls-1" d="M12.05,39,0,46V70.7L33.5,51.35,12.05,39m-4.9,9v2.3L5.2,49.1l0-2.25L7.15,48m-1.4,6.6L9,54.3l1.8,4.8-3.15.2L5.75,54.55M14.9,52l-1.85,2.6L9.9,50.6,11.75,48l3.15,4m9.5-.9v2.3L22.45,52.2,22.5,50l1.9,1.1m43.05,70,21.45-12.4L110.8,70.7V46l-43.35,75.1m34.25-39.6v-2.3l2-1.1v2.3l-2,1.1m1-9v4.3l-3.7,2,0-4.25,3.65-2m-16.8,33.3-3.15-.3,1.9-4.8,3.15.35-1.9,4.75m3.05-61.1L67.45,57.05,55.4,78,12.05,103,33.5,115.35,55.4,102.7l33.5-58m-9.1,12.5-2,1.1L77.9,56l1.9-1.1v2.3m-12.65,9.2,3.2.35-1.9,4.75-3.15-.3,1.85-4.8m-6.5,8.7v-2.3l2-1.1V74l-2,1.1m3.7.9,1.8,2.7L63,82.5l-1.85-2.6,3.2-4m-18,24.7,1.9,1.1v2.3l-2-1.15,0-2.25m1-5.65v4.3l-3.7-2.25.05-4.2L47.25,95M27.3,105l1.85-2.65,3.2,4-1.9,2.6Z"/><path class="cls-2" d="M24.4,53.35v-2.3L22.5,50l-.05,2.25,1.95,1.15m-11.35,1.2L14.9,52l-3.15-4L9.9,50.6l3.15,3.95M9,54.3l-3.2.25L7.6,59.3l3.15-.2L9,54.3m-1.8-4V48l-1.9-1.1,0,2.25,2,1.15m75.55,55.2,3.15.3,1.9-4.75-3.15-.35-1.9,4.8m20-28.7v-4.3L99,74.5l0,4.25,3.7-2m-1,2.4v2.3l2-1.1v-2.3l-2,1.1m-72.55,23.2L27.3,105l3.15,4,1.9-2.6-3.2-4m18.1-3V95L43.6,92.85l-.05,4.2,3.7,2.25m1,2.45-1.9-1.1,0,2.25,2,1.15v-2.3m18-23.1L64.35,76l-3.2,4L63,82.5l3.15-3.85m-5.5-5.9v2.3l2-1.1v-2.3l-2,1.1m9.7-6-3.2-.35-1.85,4.8,3.15.3,1.9-4.75m7.5-8.45,2-1.1v-2.3L77.9,56Z"/><path class="cls-3" d="M0,32V46l12.05-7L0,32M55.4,64,42,56.25,0,80.9V96l12.05,7L55.4,78l12.05-20.9L55.4,64M48,71.15l0-2.25L50,70v2.3l-2-1.15M39.2,67.1l-1.8-4.7,3.15-.3,1.85,4.7-3.2.3m0,8.35L41.1,72.8l3.2,4-1.9,2.6-3.15-4M10.75,87.7l.05-2.25,1.9,1.1v2.3L10.75,87.7m86.8,16L110.8,96V80.7l-13.25,23M110.8,32,97.35,39.8,55.4,112.9v-.2l-13.25,7.65L55.4,128l12.05-7L110.8,46V32m-7.35,13.4,1.9-1.1v2.3l-1.95,1.1,0-2.3M96,47.25l1.85,2.6L94.6,53.8l-1.8-2.6,3.15-4m.6,10,3.15.35L97.85,62.4l-3.2-.3,1.9-4.8m-30.4,50,0-2.3,1.9-1.1v2.3Z"/><path class="cls-4" d="M10.8,85.45l-.05,2.25,1.95,1.15v-2.3l-1.9-1.1M41.1,72.8l-1.85,2.65,3.15,4,1.9-2.6-3.2-4M37.4,62.4l1.8,4.7,3.2-.3-1.85-4.7-3.15.3m10.65,6.5,0,2.25,2,1.15V70l-1.9-1.1M66.2,105l0,2.3,1.95-1.1v-2.3L66.2,105m33.5-47.3-3.15-.35-1.9,4.8,3.2.3,1.85-4.75m-1.9-7.8L96,47.25l-3.15,4,1.8,2.6,3.2-3.95m7.55-5.55-1.9,1.1,0,2.3,1.95-1.1Z"/><path class="cls-5" d="M110.8,80.7v-10l-21.9,38,8.65-5,13.25-23M97.35,39.8,88.9,44.65,55.4,102.7,33.5,115.35l8.65,5L55.4,112.7v.2L97.35,39.8M42,56.25l-8.45-4.9L0,70.7V80.9Z"/></g><g id="Layer0_2_MEMBER_0_MEMBER_1_FILL" data-name="Layer0 2 MEMBER 0 MEMBER 1 FILL"><path class="cls-3" d="M110.9,32,55.45,0,0,32,55.45,64Z"/></g><g id="Layer0_2_MEMBER_1_FILL" data-name="Layer0 2 MEMBER 1 FILL"><path class="cls-6" d="M56.45,127.45,110.9,96V34L56.45,65.45Z"/><path class="cls-7" d="M110.9,32,55.45,0,0,32,55.45,64Z"/><path class="cls-8" d="M110.9,34V32L55.45,64,0,32v2L54.45,65.45v62l1,.55,1-.55v-62Z"/></g></g></g></svg>