# MagicaVoxel @ Ephtracy

# group
o 

# material
mtllib city_selected.mtl
usemtl palette

# normals
vn -1 0 0
vn 1 0 0
vn 0 0 1
vn 0 0 -1
vn 0 -1 0
vn 0 1 0

# texcoords
vt 0.0449219 0.5
vt 0.751953 0.5
vt 0.845703 0.5
vt 0.970703 0.5
vt 0.982422 0.5

# verts
v 0 2 0
v 0 2 -1.3
v 0 2 -2.5
v 0 2 -4
v 0 2.1 0
v 0 2.1 -1.3
v 0 2.1 -2.5
v 0 2.1 -4
v 0.4 2.1 -2.5
v 0.4 2.1 -3.7
v 0.4 2.2 -2.5
v 0.4 2.2 -3.7
v 2 2.1 -3.7
v 2 2.1 -3.8
v 2 2.2 -3.1
v 2 2.2 -3.5
v 2 2.2 -3.7
v 2 2.2 -3.8
v 2 2.5 -3.2
v 2 2.5 -3.4
v 2 2.6 -3.1
v 2 2.6 -3.2
v 2 2.6 -3.4
v 2 2.6 -3.5
v 2.4 2.1 -2.6
v 2.4 2.1 -2.7
v 2.4 2.3 -2.5
v 2.4 2.3 -2.6
v 2.4 2.4 -2.5
v 2.4 2.4 -2.6
v 2.4 2.5 -2.5
v 2.4 2.5 -2.7
v 2.7 2.1 -3.2
v 2.7 2.1 -3.4
v 2.7 2.5 -3.2
v 2.7 2.5 -3.4
v 2.8 2.1 -2.1
v 2.8 2.1 -2.2
v 2.8 2.1 -2.9
v 2.8 2.1 -3.1
v 2.8 2.2 -3.5
v 2.8 2.2 -3.8
v 2.8 2.5 -2.1
v 2.8 2.5 -2.2
v 2.8 2.6 -3.1
v 2.8 2.6 -3.5
v 2.8 3.8 -2.9
v 2.8 3.8 -3.8
v 3.7 2.2 -3
v 3.7 2.2 -3.7
v 3.7 3.7 -3
v 3.7 3.7 -3.7
v 2 2.1 -2.5
v 2 2.1 -3.1
v 2 2.2 -2.5
v 2 2.2 -3.1
v 2.1 2.1 -3.2
v 2.1 2.1 -3.4
v 2.1 2.5 -3.2
v 2.1 2.5 -3.4
v 2.5 2.1 -2.6
v 2.5 2.1 -2.7
v 2.5 2.3 -2.5
v 2.5 2.3 -2.6
v 2.5 2.4 -2.5
v 2.5 2.4 -2.6
v 2.5 2.5 -2.5
v 2.5 2.5 -2.7
v 2.9 2.1 -2.1
v 2.9 2.1 -2.2
v 2.9 2.2 -3
v 2.9 2.2 -3.7
v 2.9 2.5 -2.1
v 2.9 2.5 -2.2
v 2.9 3.7 -3
v 2.9 3.7 -3.7
v 3.8 2.1 -2.9
v 3.8 2.1 -3.8
v 3.8 3.8 -2.9
v 3.8 3.8 -3.8
v 4 2 0
v 4 2 -4
v 4 2.1 0
v 4 2.1 -4
v 0 2 0
v 0 2.1 0
v 4 2 0
v 4 2.1 0
v 2.8 2.1 -2.1
v 2.8 2.5 -2.1
v 2.9 2.1 -2.1
v 2.9 2.5 -2.1
v 0.4 2.1 -2.5
v 0.4 2.2 -2.5
v 1.3 2.1 -2.5
v 2 2.1 -2.5
v 2 2.2 -2.5
v 2.4 2.3 -2.5
v 2.4 2.4 -2.5
v 2.4 2.5 -2.5
v 2.5 2.3 -2.5
v 2.5 2.4 -2.5
v 2.5 2.5 -2.5
v 2.4 2.1 -2.6
v 2.4 2.3 -2.6
v 2.5 2.1 -2.6
v 2.5 2.3 -2.6
v 2.8 2.1 -2.9
v 2.8 3.8 -2.9
v 3 2.4 -2.9
v 3 2.9 -2.9
v 3 3.1 -2.9
v 3 3.4 -2.9
v 3.2 3.1 -2.9
v 3.2 3.4 -2.9
v 3.3 2.4 -2.9
v 3.3 2.9 -2.9
v 3.8 2.1 -2.9
v 3.8 3.8 -2.9
v 2 2.1 -3.1
v 2 2.2 -3.1
v 2 2.6 -3.1
v 2.8 2.1 -3.1
v 2.8 2.6 -3.1
v 2.1 2.1 -3.4
v 2.1 2.5 -3.4
v 2.7 2.1 -3.4
v 2.7 2.5 -3.4
v 2.9 2.2 -3.7
v 2.9 3.7 -3.7
v 3.7 2.2 -3.7
v 3.7 3.7 -3.7
v 2.8 2.1 -2.2
v 2.8 2.5 -2.2
v 2.9 2.1 -2.2
v 2.9 2.5 -2.2
v 2.4 2.1 -2.7
v 2.4 2.5 -2.7
v 2.5 2.1 -2.7
v 2.5 2.5 -2.7
v 2.9 2.2 -3
v 2.9 3.7 -3
v 3 2.4 -3
v 3 2.9 -3
v 3 3.1 -3
v 3 3.4 -3
v 3.2 3.1 -3
v 3.2 3.4 -3
v 3.3 2.4 -3
v 3.3 2.9 -3
v 3.7 2.2 -3
v 3.7 3.7 -3
v 2.1 2.1 -3.2
v 2.1 2.5 -3.2
v 2.7 2.1 -3.2
v 2.7 2.5 -3.2
v 2 2.2 -3.5
v 2 2.6 -3.5
v 2.8 2.2 -3.5
v 2.8 2.6 -3.5
v 0.4 2.1 -3.7
v 0.4 2.2 -3.7
v 2 2.1 -3.7
v 2 2.2 -3.7
v 2 2.1 -3.8
v 2 2.2 -3.8
v 2.8 2.2 -3.8
v 2.8 3.8 -3.8
v 3.8 2.1 -3.8
v 3.8 3.8 -3.8
v 0 2 -4
v 0 2.1 -4
v 4 2 -4
v 4 2.1 -4
v 0 2 0
v 4 2 0
v 0 2 -1.3
v 1.3 2 -1.3
v 1.6 2 -1.5
v 3.6 2 -1.5
v 1.6 2 -2.4
v 3.6 2 -2.4
v 0 2 -2.5
v 1.3 2 -2.5
v 2.4 2 -2.6
v 2.5 2 -2.6
v 2.4 2 -2.7
v 2.5 2 -2.7
v 0 2 -4
v 4 2 -4
v 2.4 2.3 -2.5
v 2.5 2.3 -2.5
v 2.4 2.3 -2.6
v 2.5 2.3 -2.6
v 2.1 2.5 -3.2
v 2.7 2.5 -3.2
v 2.1 2.5 -3.4
v 2.7 2.5 -3.4
v 2.9 3.7 -3
v 3.7 3.7 -3
v 2.9 3.7 -3.7
v 3.7 3.7 -3.7
v 0 2.1 0
v 4 2.1 0
v 0 2.1 -1.3
v 1.3 2.1 -1.3
v 1.6 2.1 -1.5
v 3.6 2.1 -1.5
v 2.8 2.1 -2.1
v 2.9 2.1 -2.1
v 2.8 2.1 -2.2
v 2.9 2.1 -2.2
v 1.6 2.1 -2.4
v 3.6 2.1 -2.4
v 0 2.1 -2.5
v 0.4 2.1 -2.5
v 1.3 2.1 -2.5
v 2 2.1 -2.5
v 2.4 2.1 -2.6
v 2.5 2.1 -2.6
v 2.4 2.1 -2.7
v 2.5 2.1 -2.7
v 2.8 2.1 -2.9
v 3.8 2.1 -2.9
v 2 2.1 -3.1
v 2.8 2.1 -3.1
v 2.1 2.1 -3.2
v 2.7 2.1 -3.2
v 2.1 2.1 -3.4
v 2.7 2.1 -3.4
v 0.4 2.1 -3.7
v 2 2.1 -3.7
v 2 2.1 -3.8
v 3.8 2.1 -3.8
v 0 2.1 -4
v 4 2.1 -4
v 0.4 2.2 -2.5
v 2 2.2 -2.5
v 2.9 2.2 -3
v 3.7 2.2 -3
v 2 2.2 -3.1
v 2 2.2 -3.5
v 2.8 2.2 -3.5
v 0.4 2.2 -3.7
v 2 2.2 -3.7
v 2.9 2.2 -3.7
v 3.7 2.2 -3.7
v 2 2.2 -3.8
v 2.8 2.2 -3.8
v 2.8 2.5 -2.1
v 2.9 2.5 -2.1
v 2.8 2.5 -2.2
v 2.9 2.5 -2.2
v 2.4 2.5 -2.5
v 2.5 2.5 -2.5
v 2.4 2.5 -2.7
v 2.5 2.5 -2.7
v 2 2.6 -3.1
v 2.8 2.6 -3.1
v 2 2.6 -3.2
v 2.1 2.6 -3.2
v 2 2.6 -3.4
v 2.1 2.6 -3.4
v 2 2.6 -3.5
v 2.8 2.6 -3.5
v 2.8 3.8 -2.9
v 3.8 3.8 -2.9
v 2.8 3.8 -3.8
v 3.8 3.8 -3.8

# faces
f 5/5/1 2/5/1 1/5/1
f 6/3/1 3/3/1 2/3/1
f 6/5/1 2/5/1 5/5/1
f 7/5/1 4/5/1 3/5/1
f 7/3/1 3/3/1 6/3/1
f 8/5/1 4/5/1 7/5/1
f 11/5/1 10/5/1 9/5/1
f 12/5/1 10/5/1 11/5/1
f 17/4/1 14/4/1 13/4/1
f 18/4/1 14/4/1 17/4/1
f 19/4/1 16/4/1 15/4/1
f 20/4/1 16/4/1 19/4/1
f 21/4/1 19/4/1 15/4/1
f 22/2/1 20/2/1 19/2/1
f 22/4/1 19/4/1 21/4/1
f 23/4/1 16/4/1 20/4/1
f 23/2/1 20/2/1 22/2/1
f 24/4/1 16/4/1 23/4/1
f 28/4/1 26/4/1 25/4/1
f 29/1/1 28/1/1 27/1/1
f 30/4/1 26/4/1 28/4/1
f 30/1/1 28/1/1 29/1/1
f 31/4/1 30/4/1 29/4/1
f 32/4/1 26/4/1 30/4/1
f 32/4/1 30/4/1 31/4/1
f 35/4/1 34/4/1 33/4/1
f 36/4/1 34/4/1 35/4/1
f 43/2/1 38/2/1 37/2/1
f 44/2/1 38/2/1 43/2/1
f 45/4/1 40/4/1 39/4/1
f 46/4/1 42/4/1 41/4/1
f 47/4/1 45/4/1 39/4/1
f 47/4/1 46/4/1 45/4/1
f 48/4/1 42/4/1 46/4/1
f 48/4/1 46/4/1 47/4/1
f 51/4/1 50/4/1 49/4/1
f 52/4/1 50/4/1 51/4/1
f 53/5/2 54/5/2 55/5/2
f 55/5/2 54/5/2 56/5/2
f 57/4/2 58/4/2 59/4/2
f 59/4/2 58/4/2 60/4/2
f 61/4/2 62/4/2 64/4/2
f 63/1/2 64/1/2 65/1/2
f 64/4/2 62/4/2 66/4/2
f 65/1/2 64/1/2 66/1/2
f 65/4/2 66/4/2 67/4/2
f 66/4/2 62/4/2 68/4/2
f 67/4/2 66/4/2 68/4/2
f 69/2/2 70/2/2 73/2/2
f 73/2/2 70/2/2 74/2/2
f 71/4/2 72/4/2 75/4/2
f 75/4/2 72/4/2 76/4/2
f 77/4/2 78/4/2 79/4/2
f 79/4/2 78/4/2 80/4/2
f 81/5/2 82/5/2 83/5/2
f 83/5/2 82/5/2 84/5/2
f 87/5/3 86/5/3 85/5/3
f 88/5/3 86/5/3 87/5/3
f 91/2/3 90/2/3 89/2/3
f 92/2/3 90/2/3 91/2/3
f 95/5/3 94/5/3 93/5/3
f 96/5/3 94/5/3 95/5/3
f 97/5/3 94/5/3 96/5/3
f 101/1/3 99/1/3 98/1/3
f 102/4/3 100/4/3 99/4/3
f 102/1/3 99/1/3 101/1/3
f 103/4/3 100/4/3 102/4/3
f 106/4/3 105/4/3 104/4/3
f 107/4/3 105/4/3 106/4/3
f 110/4/3 109/4/3 108/4/3
f 111/4/3 109/4/3 110/4/3
f 112/4/3 109/4/3 111/4/3
f 113/4/3 109/4/3 112/4/3
f 114/4/3 112/4/3 111/4/3
f 114/2/3 113/2/3 112/2/3
f 115/4/3 109/4/3 113/4/3
f 115/2/3 113/2/3 114/2/3
f 116/4/3 110/4/3 108/4/3
f 116/2/3 111/2/3 110/2/3
f 117/4/3 115/4/3 114/4/3
f 117/2/3 111/2/3 116/2/3
f 117/4/3 114/4/3 111/4/3
f 118/4/3 116/4/3 108/4/3
f 118/4/3 117/4/3 116/4/3
f 119/4/3 109/4/3 115/4/3
f 119/4/3 117/4/3 118/4/3
f 119/4/3 115/4/3 117/4/3
f 123/4/3 121/4/3 120/4/3
f 123/4/3 122/4/3 121/4/3
f 124/4/3 122/4/3 123/4/3
f 127/4/3 126/4/3 125/4/3
f 128/4/3 126/4/3 127/4/3
f 131/4/3 130/4/3 129/4/3
f 132/4/3 130/4/3 131/4/3
f 133/2/4 134/2/4 135/2/4
f 135/2/4 134/2/4 136/2/4
f 137/4/4 138/4/4 139/4/4
f 139/4/4 138/4/4 140/4/4
f 141/4/4 142/4/4 143/4/4
f 143/4/4 142/4/4 144/4/4
f 144/4/4 142/4/4 145/4/4
f 145/4/4 142/4/4 146/4/4
f 144/4/4 145/4/4 147/4/4
f 145/2/4 146/2/4 147/2/4
f 146/4/4 142/4/4 148/4/4
f 147/2/4 146/2/4 148/2/4
f 141/4/4 143/4/4 149/4/4
f 143/2/4 144/2/4 149/2/4
f 147/4/4 148/4/4 150/4/4
f 149/2/4 144/2/4 150/2/4
f 144/4/4 147/4/4 150/4/4
f 141/4/4 149/4/4 151/4/4
f 149/4/4 150/4/4 151/4/4
f 148/4/4 142/4/4 152/4/4
f 151/4/4 150/4/4 152/4/4
f 150/4/4 148/4/4 152/4/4
f 153/4/4 154/4/4 155/4/4
f 155/4/4 154/4/4 156/4/4
f 157/4/4 158/4/4 159/4/4
f 159/4/4 158/4/4 160/4/4
f 161/5/4 162/5/4 163/5/4
f 163/5/4 162/5/4 164/5/4
f 165/4/4 166/4/4 167/4/4
f 165/4/4 167/4/4 169/4/4
f 167/4/4 168/4/4 169/4/4
f 169/4/4 168/4/4 170/4/4
f 171/5/4 172/5/4 173/5/4
f 173/5/4 172/5/4 174/5/4
f 177/5/5 176/5/5 175/5/5
f 178/5/5 176/5/5 177/5/5
f 179/5/5 176/5/5 178/5/5
f 180/5/5 176/5/5 179/5/5
f 181/5/5 179/5/5 178/5/5
f 181/3/5 180/3/5 179/3/5
f 182/5/5 176/5/5 180/5/5
f 182/3/5 180/3/5 181/3/5
f 183/3/5 178/3/5 177/3/5
f 184/5/5 181/5/5 178/5/5
f 184/3/5 178/3/5 183/3/5
f 184/5/5 182/5/5 181/5/5
f 185/5/5 184/5/5 183/5/5
f 185/5/5 182/5/5 184/5/5
f 186/5/5 182/5/5 185/5/5
f 187/5/5 185/5/5 183/5/5
f 187/4/5 186/4/5 185/4/5
f 188/5/5 182/5/5 186/5/5
f 188/4/5 186/4/5 187/4/5
f 189/5/5 187/5/5 183/5/5
f 189/5/5 188/5/5 187/5/5
f 190/5/5 176/5/5 182/5/5
f 190/5/5 188/5/5 189/5/5
f 190/5/5 182/5/5 188/5/5
f 193/1/5 192/1/5 191/1/5
f 194/1/5 192/1/5 193/1/5
f 197/4/5 196/4/5 195/4/5
f 198/4/5 196/4/5 197/4/5
f 201/4/5 200/4/5 199/4/5
f 202/4/5 200/4/5 201/4/5
f 203/5/6 204/5/6 205/5/6
f 205/5/6 204/5/6 206/5/6
f 206/5/6 204/5/6 207/5/6
f 207/5/6 204/5/6 208/5/6
f 207/3/6 208/3/6 209/3/6
f 209/3/6 208/3/6 210/3/6
f 207/3/6 209/3/6 211/3/6
f 210/3/6 208/3/6 212/3/6
f 206/5/6 207/5/6 213/5/6
f 211/3/6 212/3/6 213/3/6
f 207/3/6 211/3/6 213/3/6
f 212/3/6 208/3/6 214/3/6
f 213/3/6 212/3/6 214/3/6
f 208/5/6 204/5/6 214/5/6
f 205/3/6 206/3/6 215/3/6
f 215/3/6 206/3/6 216/3/6
f 206/5/6 213/5/6 217/5/6
f 216/3/6 206/3/6 217/3/6
f 213/5/6 214/5/6 217/5/6
f 217/5/6 214/5/6 218/5/6
f 218/5/6 214/5/6 219/5/6
f 219/5/6 214/5/6 220/5/6
f 218/5/6 219/5/6 221/5/6
f 220/5/6 214/5/6 222/5/6
f 222/5/6 214/5/6 223/5/6
f 221/5/6 222/5/6 223/5/6
f 214/5/6 204/5/6 224/5/6
f 223/5/6 214/5/6 224/5/6
f 221/5/6 223/5/6 225/5/6
f 218/5/6 221/5/6 225/5/6
f 225/5/6 223/5/6 226/5/6
f 227/5/6 228/5/6 229/5/6
f 229/5/6 228/5/6 230/5/6
f 215/5/6 216/5/6 231/5/6
f 231/5/6 232/5/6 233/5/6
f 224/5/6 204/5/6 234/5/6
f 231/5/6 233/5/6 235/5/6
f 233/5/6 234/5/6 235/5/6
f 215/5/6 231/5/6 235/5/6
f 234/5/6 204/5/6 236/5/6
f 235/5/6 234/5/6 236/5/6
f 237/5/6 238/5/6 241/5/6
f 237/5/6 241/5/6 242/5/6
f 237/5/6 242/5/6 244/5/6
f 242/4/6 243/4/6 245/4/6
f 244/5/6 242/5/6 245/5/6
f 239/4/6 240/4/6 246/4/6
f 246/4/6 240/4/6 247/4/6
f 245/4/6 243/4/6 248/4/6
f 248/4/6 243/4/6 249/4/6
f 250/2/6 251/2/6 252/2/6
f 252/2/6 251/2/6 253/2/6
f 254/4/6 255/4/6 256/4/6
f 256/4/6 255/4/6 257/4/6
f 258/4/6 259/4/6 260/4/6
f 260/4/6 259/4/6 261/4/6
f 260/2/6 261/2/6 262/2/6
f 261/4/6 259/4/6 263/4/6
f 262/2/6 261/2/6 263/2/6
f 262/4/6 263/4/6 264/4/6
f 263/4/6 259/4/6 265/4/6
f 264/4/6 263/4/6 265/4/6
f 266/4/6 267/4/6 268/4/6
f 268/4/6 267/4/6 269/4/6
