# MagicaVoxel @ Ephtracy

# group
o 

# material
mtllib city.mtl
usemtl palette

# normals
vn -1 0 0
vn 1 0 0
vn 0 0 1
vn 0 0 -1
vn 0 -1 0
vn 0 1 0

# texcoords
vt 0.0449219 0.5
vt 0.751953 0.5
vt 0.845703 0.5
vt 0.970703 0.5
vt 0.982422 0.5

# verts
v 0 2 0
v 0 2 -1.3
v 0 2 -2.5
v 0 2 -4
v 0 2.1 0
v 0 2.1 -1.3
v 0 2.1 -2.5
v 0 2.1 -4
v 0.4 2.1 -2.5
v 0.4 2.1 -3.7
v 0.4 2.2 -2.5
v 0.4 2.2 -3.7
v 2 2.1 -3.7
v 2 2.1 -3.8
v 2 2.2 -3.1
v 2 2.2 -3.5
v 2 2.2 -3.7
v 2 2.2 -3.8
v 2 2.5 -3.2
v 2 2.5 -3.4
v 2 2.6 -3.1
v 2 2.6 -3.2
v 2 2.6 -3.4
v 2 2.6 -3.5
v 2.4 2.1 -2.6
v 2.4 2.1 -2.7
v 2.4 2.3 -2.5
v 2.4 2.3 -2.6
v 2.4 2.4 -2.5
v 2.4 2.4 -2.6
v 2.4 2.5 -2.5
v 2.4 2.5 -2.7
v 2.8 2.1 -2.9
v 2.8 2.1 -3.1
v 2.8 2.2 -3.5
v 2.8 2.2 -3.8
v 2.8 2.6 -3.1
v 2.8 2.6 -3.5
v 2.8 3.8 -2.9
v 2.8 3.8 -3.8
v 3.3 2.4 -2.9
v 3.3 2.4 -3
v 3.3 2.9 -2.9
v 3.3 2.9 -3
v 2 2.1 -2.5
v 2 2.1 -3.1
v 2 2.2 -2.5
v 2 2.2 -3.1
v 2.5 2.1 -2.6
v 2.5 2.1 -2.7
v 2.5 2.3 -2.5
v 2.5 2.3 -2.6
v 2.5 2.4 -2.5
v 2.5 2.4 -2.6
v 2.5 2.5 -2.5
v 2.5 2.5 -2.7
v 3 2.4 -2.9
v 3 2.4 -3
v 3 2.9 -2.9
v 3 2.9 -3
v 3.8 2.1 -2.9
v 3.8 2.1 -3.8
v 3.8 3.8 -2.9
v 3.8 3.8 -3.8
v 4 2 0
v 4 2 -4
v 4 2.1 0
v 4 2.1 -4
v 0 2 0
v 0 2.1 0
v 4 2 0
v 4 2.1 0
v 0.4 2.1 -2.5
v 0.4 2.2 -2.5
v 1.3 2.1 -2.5
v 2 2.1 -2.5
v 2 2.2 -2.5
v 2.4 2.3 -2.5
v 2.4 2.4 -2.5
v 2.4 2.5 -2.5
v 2.5 2.3 -2.5
v 2.5 2.4 -2.5
v 2.5 2.5 -2.5
v 2.4 2.1 -2.6
v 2.4 2.3 -2.6
v 2.5 2.1 -2.6
v 2.5 2.3 -2.6
v 2.8 2.1 -2.9
v 2.8 3.8 -2.9
v 3 2.4 -2.9
v 3 2.9 -2.9
v 3 3.1 -2.9
v 3 3.4 -2.9
v 3.2 3.1 -2.9
v 3.2 3.4 -2.9
v 3.3 2.4 -2.9
v 3.3 2.9 -2.9
v 3.8 2.1 -2.9
v 3.8 3.8 -2.9
v 3 2.4 -3
v 3 2.9 -3
v 3.3 2.4 -3
v 3.3 2.9 -3
v 2 2.1 -3.1
v 2 2.2 -3.1
v 2 2.6 -3.1
v 2.8 2.1 -3.1
v 2.8 2.6 -3.1
v 2.4 2.1 -2.7
v 2.4 2.5 -2.7
v 2.5 2.1 -2.7
v 2.5 2.5 -2.7
v 2 2.2 -3.5
v 2 2.6 -3.5
v 2.8 2.2 -3.5
v 2.8 2.6 -3.5
v 0.4 2.1 -3.7
v 0.4 2.2 -3.7
v 2 2.1 -3.7
v 2 2.2 -3.7
v 2 2.1 -3.8
v 2 2.2 -3.8
v 2.8 2.2 -3.8
v 2.8 3.8 -3.8
v 3.8 2.1 -3.8
v 3.8 3.8 -3.8
v 0 2 -4
v 0 2.1 -4
v 4 2 -4
v 4 2.1 -4
v 0 2 0
v 4 2 0
v 0 2 -1.3
v 1.3 2 -1.3
v 1.6 2 -1.5
v 3.6 2 -1.5
v 1.6 2 -2.4
v 3.6 2 -2.4
v 0 2 -2.5
v 1.3 2 -2.5
v 2.4 2 -2.6
v 2.5 2 -2.6
v 2.4 2 -2.7
v 2.5 2 -2.7
v 0 2 -4
v 4 2 -4
v 2.4 2.3 -2.5
v 2.5 2.3 -2.5
v 2.4 2.3 -2.6
v 2.5 2.3 -2.6
v 3 2.9 -2.9
v 3.3 2.9 -2.9
v 3 2.9 -3
v 3.3 2.9 -3
v 0 2.1 0
v 4 2.1 0
v 0 2.1 -1.3
v 1.3 2.1 -1.3
v 1.6 2.1 -1.5
v 3.6 2.1 -1.5
v 1.6 2.1 -2.4
v 3.6 2.1 -2.4
v 0 2.1 -2.5
v 0.4 2.1 -2.5
v 1.3 2.1 -2.5
v 2 2.1 -2.5
v 2.4 2.1 -2.6
v 2.5 2.1 -2.6
v 2.4 2.1 -2.7
v 2.5 2.1 -2.7
v 2.8 2.1 -2.9
v 3.8 2.1 -2.9
v 2 2.1 -3.1
v 2.8 2.1 -3.1
v 0.4 2.1 -3.7
v 2 2.1 -3.7
v 2 2.1 -3.8
v 3.8 2.1 -3.8
v 0 2.1 -4
v 4 2.1 -4
v 0.4 2.2 -2.5
v 2 2.2 -2.5
v 2 2.2 -3.1
v 2 2.2 -3.5
v 2.8 2.2 -3.5
v 0.4 2.2 -3.7
v 2 2.2 -3.7
v 2 2.2 -3.8
v 2.8 2.2 -3.8
v 3 2.4 -2.9
v 3.3 2.4 -2.9
v 3 2.4 -3
v 3.3 2.4 -3
v 2.4 2.5 -2.5
v 2.5 2.5 -2.5
v 2.4 2.5 -2.7
v 2.5 2.5 -2.7
v 2 2.6 -3.1
v 2.8 2.6 -3.1
v 2 2.6 -3.2
v 2.1 2.6 -3.2
v 2 2.6 -3.4
v 2.1 2.6 -3.4
v 2 2.6 -3.5
v 2.8 2.6 -3.5
v 2.8 3.8 -2.9
v 3.8 3.8 -2.9
v 2.8 3.8 -3.8
v 3.8 3.8 -3.8

# faces
f 5/5/1 2/5/1 1/5/1
f 6/3/1 3/3/1 2/3/1
f 6/5/1 2/5/1 5/5/1
f 7/5/1 4/5/1 3/5/1
f 7/3/1 3/3/1 6/3/1
f 8/5/1 4/5/1 7/5/1
f 11/5/1 10/5/1 9/5/1
f 12/5/1 10/5/1 11/5/1
f 17/4/1 14/4/1 13/4/1
f 18/4/1 14/4/1 17/4/1
f 19/4/1 16/4/1 15/4/1
f 20/4/1 16/4/1 19/4/1
f 21/4/1 19/4/1 15/4/1
f 22/2/1 20/2/1 19/2/1
f 22/4/1 19/4/1 21/4/1
f 23/4/1 16/4/1 20/4/1
f 23/2/1 20/2/1 22/2/1
f 24/4/1 16/4/1 23/4/1
f 28/4/1 26/4/1 25/4/1
f 29/1/1 28/1/1 27/1/1
f 30/4/1 26/4/1 28/4/1
f 30/1/1 28/1/1 29/1/1
f 31/4/1 30/4/1 29/4/1
f 32/4/1 26/4/1 30/4/1
f 32/4/1 30/4/1 31/4/1
f 37/4/1 34/4/1 33/4/1
f 38/4/1 36/4/1 35/4/1
f 39/4/1 37/4/1 33/4/1
f 39/4/1 38/4/1 37/4/1
f 40/4/1 36/4/1 38/4/1
f 40/4/1 38/4/1 39/4/1
f 43/4/1 42/4/1 41/4/1
f 44/4/1 42/4/1 43/4/1
f 45/5/2 46/5/2 47/5/2
f 47/5/2 46/5/2 48/5/2
f 49/4/2 50/4/2 52/4/2
f 51/1/2 52/1/2 53/1/2
f 52/4/2 50/4/2 54/4/2
f 53/1/2 52/1/2 54/1/2
f 53/4/2 54/4/2 55/4/2
f 54/4/2 50/4/2 56/4/2
f 55/4/2 54/4/2 56/4/2
f 57/4/2 58/4/2 59/4/2
f 59/4/2 58/4/2 60/4/2
f 61/4/2 62/4/2 63/4/2
f 63/4/2 62/4/2 64/4/2
f 65/5/2 66/5/2 67/5/2
f 67/5/2 66/5/2 68/5/2
f 71/5/3 70/5/3 69/5/3
f 72/5/3 70/5/3 71/5/3
f 75/5/3 74/5/3 73/5/3
f 76/5/3 74/5/3 75/5/3
f 77/5/3 74/5/3 76/5/3
f 81/1/3 79/1/3 78/1/3
f 82/4/3 80/4/3 79/4/3
f 82/1/3 79/1/3 81/1/3
f 83/4/3 80/4/3 82/4/3
f 86/4/3 85/4/3 84/4/3
f 87/4/3 85/4/3 86/4/3
f 90/4/3 89/4/3 88/4/3
f 91/4/3 89/4/3 90/4/3
f 92/4/3 89/4/3 91/4/3
f 93/4/3 89/4/3 92/4/3
f 94/4/3 92/4/3 91/4/3
f 94/2/3 93/2/3 92/2/3
f 95/4/3 89/4/3 93/4/3
f 95/2/3 93/2/3 94/2/3
f 96/4/3 90/4/3 88/4/3
f 97/4/3 94/4/3 91/4/3
f 97/4/3 95/4/3 94/4/3
f 98/4/3 96/4/3 88/4/3
f 98/4/3 97/4/3 96/4/3
f 99/4/3 89/4/3 95/4/3
f 99/4/3 97/4/3 98/4/3
f 99/4/3 95/4/3 97/4/3
f 102/4/3 101/4/3 100/4/3
f 103/4/3 101/4/3 102/4/3
f 107/4/3 105/4/3 104/4/3
f 107/4/3 106/4/3 105/4/3
f 108/4/3 106/4/3 107/4/3
f 109/4/4 110/4/4 111/4/4
f 111/4/4 110/4/4 112/4/4
f 113/4/4 114/4/4 115/4/4
f 115/4/4 114/4/4 116/4/4
f 117/5/4 118/5/4 119/5/4
f 119/5/4 118/5/4 120/5/4
f 121/4/4 122/4/4 123/4/4
f 121/4/4 123/4/4 125/4/4
f 123/4/4 124/4/4 125/4/4
f 125/4/4 124/4/4 126/4/4
f 127/5/4 128/5/4 129/5/4
f 129/5/4 128/5/4 130/5/4
f 133/5/5 132/5/5 131/5/5
f 134/5/5 132/5/5 133/5/5
f 135/5/5 132/5/5 134/5/5
f 136/5/5 132/5/5 135/5/5
f 137/5/5 135/5/5 134/5/5
f 137/3/5 136/3/5 135/3/5
f 138/5/5 132/5/5 136/5/5
f 138/3/5 136/3/5 137/3/5
f 139/3/5 134/3/5 133/3/5
f 140/5/5 137/5/5 134/5/5
f 140/3/5 134/3/5 139/3/5
f 140/5/5 138/5/5 137/5/5
f 141/5/5 140/5/5 139/5/5
f 141/5/5 138/5/5 140/5/5
f 142/5/5 138/5/5 141/5/5
f 143/5/5 141/5/5 139/5/5
f 143/4/5 142/4/5 141/4/5
f 144/5/5 138/5/5 142/5/5
f 144/4/5 142/4/5 143/4/5
f 145/5/5 143/5/5 139/5/5
f 145/5/5 144/5/5 143/5/5
f 146/5/5 132/5/5 138/5/5
f 146/5/5 144/5/5 145/5/5
f 146/5/5 138/5/5 144/5/5
f 149/1/5 148/1/5 147/1/5
f 150/1/5 148/1/5 149/1/5
f 153/4/5 152/4/5 151/4/5
f 154/4/5 152/4/5 153/4/5
f 155/5/6 156/5/6 157/5/6
f 157/5/6 156/5/6 158/5/6
f 158/5/6 156/5/6 159/5/6
f 159/5/6 156/5/6 160/5/6
f 158/5/6 159/5/6 161/5/6
f 159/3/6 160/3/6 161/3/6
f 160/5/6 156/5/6 162/5/6
f 161/3/6 160/3/6 162/3/6
f 157/3/6 158/3/6 163/3/6
f 163/3/6 158/3/6 164/3/6
f 158/5/6 161/5/6 165/5/6
f 164/3/6 158/3/6 165/3/6
f 161/5/6 162/5/6 165/5/6
f 165/5/6 162/5/6 166/5/6
f 166/5/6 162/5/6 167/5/6
f 167/5/6 162/5/6 168/5/6
f 166/5/6 167/5/6 169/5/6
f 168/5/6 162/5/6 170/5/6
f 170/5/6 162/5/6 171/5/6
f 169/5/6 170/5/6 171/5/6
f 162/5/6 156/5/6 172/5/6
f 171/5/6 162/5/6 172/5/6
f 169/5/6 171/5/6 173/5/6
f 166/5/6 169/5/6 173/5/6
f 173/5/6 171/5/6 174/5/6
f 163/5/6 164/5/6 175/5/6
f 175/5/6 176/5/6 177/5/6
f 172/5/6 156/5/6 178/5/6
f 175/5/6 177/5/6 179/5/6
f 177/5/6 178/5/6 179/5/6
f 163/5/6 175/5/6 179/5/6
f 178/5/6 156/5/6 180/5/6
f 179/5/6 178/5/6 180/5/6
f 181/5/6 182/5/6 183/5/6
f 181/5/6 183/5/6 184/5/6
f 181/5/6 184/5/6 186/5/6
f 184/4/6 185/4/6 187/4/6
f 186/5/6 184/5/6 187/5/6
f 187/4/6 185/4/6 188/4/6
f 188/4/6 185/4/6 189/4/6
f 190/4/6 191/4/6 192/4/6
f 192/4/6 191/4/6 193/4/6
f 194/4/6 195/4/6 196/4/6
f 196/4/6 195/4/6 197/4/6
f 198/4/6 199/4/6 200/4/6
f 200/4/6 199/4/6 201/4/6
f 200/2/6 201/2/6 202/2/6
f 201/4/6 199/4/6 203/4/6
f 202/2/6 201/2/6 203/2/6
f 202/4/6 203/4/6 204/4/6
f 203/4/6 199/4/6 205/4/6
f 204/4/6 203/4/6 205/4/6
f 206/4/6 207/4/6 208/4/6
f 208/4/6 207/4/6 209/4/6
