<?xml version="1.0" encoding="utf-8"?>
<!-- Generator: Adobe Illustrator 22.0.1, SVG Export Plug-In . SVG Version: 6.00 Build 0)  -->
<svg version="1.1" id="Layer_1" xmlns="http://www.w3.org/2000/svg" xmlns:xlink="http://www.w3.org/1999/xlink" x="0px" y="0px"
	 viewBox="0 0 110.9 128" style="enable-background:new 0 0 110.9 128;" xml:space="preserve">
<style type="text/css">
	.st0{fill:#B0E9FC;}
	.st1{fill:#B8EBFC;}
	.st2{fill:#A6E6FC;}
	.st3{fill-opacity:0.1;}
	.st4{fill:#FFFFFF;fill-opacity:0.1;}
	.st5{fill:#FFFFFF;fill-opacity:0.2;}
</style>
<path id="Details4" class="st0" d="M12.1,39L0,46v24.7l33.5-19.4L12.1,39 M67.5,121L89,108.6l21.9-38l0-24.6L67.5,121 M89,44.6
	L67.4,57l-12,21l-43.4,25l21.5,12.3l22-12.7L89,44.6 M79.8,57.2"/>
<path id="Details3" class="st1" d="M0,32v14l12.1-7L0,32 M55.4,64L42,56.2L0,80.9V96l12.1,7l43.4-25l12-21L55.4,64 M97.6,103.7
	l13.3-7.8V80.5L97.6,103.7 M110.9,31.9l-13.6,7.9l-41.9,73.1v-0.2l-13.3,7.7l13.3,7.6l12.1-7l43.4-75V31.9"/>
<path id="Details1" class="st2" d="M111,80.4l-0.1-9.8l-21.9,38l8.7-5l13.3-23 M97.5,39.7L89,44.6l-33.5,58l-22,12.7l8.7,5l13.4-7.7
	v0.2L97.5,39.7 M42,56.2l-8.5-4.9L0,70.7v10.2L42,56.2z"/>
<path id="ColorTop" class="st1" d="M110.9,32L55.5,0L0,32l55.4,32L110.9,32z"/>
<path id="ShadingSide" class="st3" d="M56.5,127.4L110.9,96V34L56.5,65.4V127.4z"/>
<path id="ShadingTop" class="st4" d="M110.9,32L55.5,0L0,32l55.4,32L110.9,32z"/>
<path id="ShadingEdges" class="st5" d="M110.9,34v-2L55.4,64L0,32v2l54.5,31.5v62l1,0.6l1-0.6v-62L110.9,34z"/>
</svg>
